<?xml version="1.0" encoding="UTF-8" standalone="no"?>
<svg
   xmlns:dc="http://purl.org/dc/elements/1.1/"
   xmlns:cc="http://creativecommons.org/ns#"
   xmlns:rdf="http://www.w3.org/1999/02/22-rdf-syntax-ns#"
   xmlns:svg="http://www.w3.org/2000/svg"
   xmlns="http://www.w3.org/2000/svg"
   xmlns:sodipodi="http://sodipodi.sourceforge.net/DTD/sodipodi-0.dtd"
   xmlns:inkscape="http://www.inkscape.org/namespaces/inkscape"
   version="1.1"
   id="handy"
   x="0px"
   y="0px"
   viewBox="0 0 800 800"
   enable-background="new 0 0 800 800"
   xml:space="preserve"
   sodipodi:docname="InDiKo_danke.svg"
   inkscape:version="1.0.2 (394de47547, 2021-03-26)"
   inkscape:export-filename="/home/sonja/Desktop/InDiKo_danke.png"
   inkscape:export-xdpi="96"
   inkscape:export-ydpi="96"><metadata
   id="metadata71"><rdf:RDF><cc:Work
       rdf:about=""><dc:format>image/svg+xml</dc:format><dc:type
         rdf:resource="http://purl.org/dc/dcmitype/StillImage" /><dc:title /></cc:Work></rdf:RDF></metadata><defs
   id="defs69">
	
	
	
	
	
	
</defs><sodipodi:namedview
   pagecolor="#ffffff"
   bordercolor="#666666"
   borderopacity="1"
   objecttolerance="10"
   gridtolerance="10"
   guidetolerance="10"
   inkscape:pageopacity="0"
   inkscape:pageshadow="2"
   inkscape:window-width="1848"
   inkscape:window-height="1016"
   id="namedview67"
   showgrid="false"
   inkscape:lockguides="false"
   inkscape:zoom="0.65318989"
   inkscape:cx="786.89999"
   inkscape:cy="237.71318"
   inkscape:window-x="72"
   inkscape:window-y="27"
   inkscape:window-maximized="1"
   inkscape:current-layer="handy"
   inkscape:document-rotation="0" />
<g
   id="g4"
   transform="matrix(0.89768282,0,0,0.91636309,482.32075,-39.149459)">
	
</g>
<g
   id="g8"
   transform="matrix(0.89768282,0,0,0.91636309,482.32075,-39.149459)">
	<path
   fill="#364760"
   d="m 312.2,650 c 0,3.8 -3.1,7 -7,7 h -256 c -3.8,0 -7,-3.1 -7,-7 V 228.6 c 0,-3.8 3.1,-7 7,-7 0,0 8.333911,-51.59194 27.104269,-51.22596 18.770357,0.36597 23.673251,49.29962 23.673251,49.29962 l 156.58679,-2.93411 c 0,0 6.28384,-52.05427 25.38692,-51.41525 C 302.23619,166.00286 305.2,221.6 305.2,221.6 c 1.45093,3.51209 7,3.1 7,7 z"
   id="path6"
   sodipodi:nodetypes="sssssscccasss" />
</g>
<g
   id="g12"
   style="fill:#ffffff"
   transform="matrix(0.89768282,0,0,0.91636309,482.32075,-39.149459)">
	<path
   fill="#FFFFFF"
   d="m 291.5,603.9 c 0,0 0,0 0,0 H 63.1 c 0,0 0,0 0,0 V 255.6 c 0,0 0,0 0,0 h 228.4 c 0,0 0,0 0,0 z"
   id="path10"
   style="fill:#ffffff" />
</g>
<g
   id="g22"
   transform="matrix(0.89768282,0,0,0.91636309,482.32075,-39.149459)">
	<path
   fill="#364760"
   d="m 278.8,570.9 c 0,2.2 -1.7,3.9 -3.8,3.9 h -30.5 c -2.1,0 -3.8,-1.8 -3.8,-3.9 v -31.3 c 0,-2.2 1.7,-3.9 3.8,-3.9 H 275 c 2.1,0 3.8,1.8 3.8,3.9 z"
   id="path14" />
	<path
   fill="#364760"
   d="m 113.8,570.9 c 0,2.2 -1.7,3.9 -3.8,3.9 H 79.5 c -2.1,0 -3.8,-1.8 -3.8,-3.9 v -31.3 c 0,-2.2 1.7,-3.9 3.8,-3.9 H 110 c 2.1,0 3.8,1.8 3.8,3.9 z"
   id="path16" />
	<path
   fill="#364760"
   d="m 168.8,570.9 c 0,2.2 -1.7,3.9 -3.8,3.9 h -30.5 c -2.1,0 -3.8,-1.8 -3.8,-3.9 v -31.3 c 0,-2.2 1.7,-3.9 3.8,-3.9 H 165 c 2.1,0 3.8,1.8 3.8,3.9 z"
   id="path18" />
	<path
   fill="#364760"
   d="m 223.8,570.9 c 0,2.2 -1.7,3.9 -3.8,3.9 h -30.5 c -2.1,0 -3.8,-1.8 -3.8,-3.9 v -31.3 c 0,-2.2 1.7,-3.9 3.8,-3.9 H 220 c 2.1,0 3.8,1.8 3.8,3.9 z"
   id="path20" />
</g>
<g
   id="g26"
   transform="matrix(0.89768282,0,0,0.91636309,482.32075,-39.149459)">
	<path
   fill="#38608a"
   d="M 160.3,504.6"
   id="path24" />
</g>
<rect
   x="129.2"
   y="409.3"
   display="none"
   fill="#57657C"
   width="172.9"
   height="48.1"
   id="rect28" />
<g
   id="g32"
   transform="matrix(0.89768282,0,0,0.91636309,482.32075,-39.149459)">
	<path
   fill="#ffffff"
   d="m 214.3,631.3 c 0,4.8 -3.9,8.7 -8.7,8.7 H 149 c -4.8,0 -8.7,-3.9 -8.7,-8.7 v -3.5 c 0,-4.8 3.9,-8.7 8.7,-8.7 h 56.6 c 4.8,0 8.7,3.9 8.7,8.7 z"
   id="path30" />
</g>
<g
   id="g36"
   transform="matrix(0.89768282,0,0,0.91636309,482.32075,-39.149459)">
	<path
   fill="#ffffff"
   d="m 239.1,238.1 c 0,1.8 -2.8,3.3 -6.3,3.3 H 121.7 c -3.5,0 -6.3,-1.5 -6.3,-3.3 0,-1.8 2.8,-3.3 6.3,-3.3 h 111.1 c 3.4,0.1 6.3,1.6 6.3,3.3 z"
   id="path34" />
</g>
<ellipse
   fill="#65748c"
   stroke="#5b6b84"
   stroke-width="0.840312"
   stroke-miterlimit="10"
   cx="709.07538"
   cy="179.03659"
   id="circle38"
   rx="2.9623532"
   ry="3.0239983"
   style="fill:#65728c;fill-opacity:1" />
<g
   id="g44"
   transform="matrix(0.89768282,0,0,0.91636309,-175.52238,-20.625381)">
	<g
   id="g42">
		<path
   fill="#364760"
   stroke="#ffffff"
   stroke-width="4.4917"
   stroke-miterlimit="10"
   d="m 251.49998,122.2 h 474 c 22.7,-3.1 39.8,17.3 39.7,39.7 v 182.9 c 0,21.9 -17.2,39.7 -38.3,39.7 -4.5,0 -6.6,0.9 -7.3,1.4 0.1,0.9 1.1,3.6 5,7.5 l 22.5,22.4 c 5.4,5.4 12.1,13.4 9,21 -0.8,2 -3.6,6.7 -11.4,6.7 -4.9,-0.1 -9.6,-1 -13.2,-2.8 l -128.9,-45.9 c -15.5,-5.5 -42.5,-10.2 -58.9,-10.2 h -292 c -21.9,0 -39.7,-17.8 -39.7,-39.7 v -183 c -0.1,-21.9 17.7,-39.7 39.5,-39.7 z m -19.1,221.5 c 0,12.9 10.5,23.4 23.4,23.4 h 286.8 c 17.9,0 46.2,4.9 63.1,10.9 l 123.3,43.9 -19.6,-19.5 c -11.4,-11.3 -10.1,-20.1 -8.4,-24.4 1.7,-4.1 6.7,-10.9 21.6,-10.9 12.1,0 22,-10.5 22,-23.4 V 164 c 0,-12.9 -10.5,-23.4 -23.4,-23.4 h -465.6 c -12.9,0 -23.4,10.5 -23.4,23.4 v 179.7 z"
   id="path40" />
	</g>
</g>

<path
   fill="#364760"
   d="m 354.50625,156.47344 c 0,6.048 0,13.3789 0,20.80144 0,1.37455 -0.0898,3.11564 1.16699,3.75709 1.52606,0.82473 2.33397,-1.008 3.14189,-1.92436 13.46524,-16.12799 29.7133,-29.59853 41.0241,-47.74252 4.03958,-6.59781 11.40057,-7.78908 17.32528,-3.66545 5.56563,3.84872 6.91216,11.72945 2.69305,17.96072 -7.361,11.08799 -15.70945,21.35126 -25.04535,30.7898 -3.23166,3.2989 -2.33398,9.16363 -1.43629,13.19562 1.25675,5.77309 2.78281,11.54618 4.12934,17.4109 6.37355,27.94908 11.66987,55.80652 20.82624,83.0225 2.24421,6.68945 -1.07722,13.10399 -7.54054,15.66981 -6.01447,2.38254 -12.74709,-0.27491 -15.2606,-6.78109 -5.83494,-15.30326 -10.50289,-31.06471 -13.28571,-47.28433 -2.60328,-15.11999 -6.46332,-29.96508 -9.69497,-44.99343 -1.07722,-4.94836 -1.61583,-4.94836 -5.29633,-1.74109 -1.25676,1.09963 -2.69305,2.016 -3.86004,3.20727 -4.93726,4.85672 -5.02702,9.62181 -4.93726,16.21963 0.0898,8.15563 0.17954,16.21962 0.17954,24.37525 0,12.18763 0.17954,24.37526 0.35907,36.56289 0.0898,8.79709 1.4363,20.4349 -9.96427,22.08435 -6.91216,1.008 -12.92664,-4.12363 -13.82432,-11.91272 -2.33398,-22.17598 -1.25676,-44.44361 -1.79537,-66.71123 -0.71814,-30.97307 -4.03957,-61.76287 -4.12934,-92.82758 0,-8.70545 0,-18.69381 10.23359,-20.4349 6.01447,-1.008 11.93918,3.39054 13.46524,10.26327 2.33397,9.71345 0.98745,19.61017 1.52606,30.69816 z"
   id="path54"
   style="stroke-width:0.906975" /><path
   fill="#364760"
   d="m 250.55499,237.01143 c 0,-12.73745 -0.0898,-25.47489 0.0898,-38.21234 0.0898,-7.60582 5.6554,-13.3789 12.29826,-13.19563 6.55308,0.0916 11.66987,5.68145 12.02895,13.10399 0.0898,0.91637 0,1.83273 0,2.74909 0.0898,8.61381 0.0898,8.61381 8.34845,7.60581 7.00192,-0.82472 14.09362,-1.09963 21.09554,0.0916 14.99131,2.56582 21.27508,10.99636 23.60906,25.19999 2.60328,16.12799 0.98745,32.43925 0.89768,48.75051 -0.0898,6.87273 -5.6554,11.82109 -12.02895,12.00436 -6.19401,0.18327 -11.40057,-4.21527 -12.38802,-10.99636 -0.53861,-3.48218 -0.44884,-7.05599 -0.44884,-10.53817 -0.0898,-11.088 0,-22.08435 -0.0898,-33.17235 -0.0898,-5.40654 -1.52606,-6.78108 -6.73262,-6.96436 -3.14189,-0.0916 -4.57818,-0.18327 -7.6303,0.0916 -6.82239,0.54982 -14.27316,6.3229 -14.36293,13.3789 -0.0898,10.99636 -0.71815,22.08435 1.16699,33.08071 1.16699,6.87272 -2.96236,12.92072 -9.24614,14.20363 -6.91215,1.37454 -12.74709,-2.016 -14.72199,-8.88873 -1.4363,-5.03999 -1.79537,-10.26326 -1.79537,-15.48653 0,-10.99636 -0.0898,-21.90108 -0.0898,-32.8058 z"
   id="path56"
   sodipodi:nodetypes="sccccccccccccccccccsss"
   style="stroke-width:0.906975" /><g
   id="g967"
   transform="matrix(0.89768282,0,0,0.91636309,-365.50082,-16.162532)"><path
     fill="#364760"
     d="m 593.08665,246.78404 c 2.51624,-4.01716 5.85753,-12.69029 15.45649,-17.24935 12.14541,-5.7685 37.59715,-5.82244 41.56289,-4.20263 5.6,2.2 1.80668,21.81164 1.60668,27.61164 -0.0624,2.3704 -10.04162,-2.36633 -15.13483,-2.15309 -6.06445,0.25389 -12.60459,1.78062 -17.73194,4.06051 -7.54847,3.35644 -8.16287,15.35546 -7.61681,20.93303 0.7539,7.70056 -0.36688,27.28244 8.16651,34.66086 6.96572,6.02293 33.64204,-3.5214 33.35933,0.95482 3.72906,10 10.56553,21.99493 1.66553,21.79493 -3.79259,-0.10251 -15.64056,4.41458 -27.89466,4.05404 -11.65575,-0.34293 -18.20437,0.54138 -25.91598,-5.3372 -4.59597,-3.50353 -8.85871,-10.66999 -10.9147,-17.11704 -3.41315,-10.70272 -1.77672,-18.25961 -1.67672,-33.65961 0,7.8 3.65226,7.98926 0.15226,19.41534 -0.94924,11.9468 -6.1651,20.13785 -12.5651,27.43785 -6.2,7.1 -10.14925,12.21181 -18.44925,16.71181 -9,4.9 -16.60583,6.99714 -26.50583,8.79714 -2.4,0.4 -17.36387,1.93517 -19.76387,2.53517 -9.5,6.6 -21.91745,3.59091 -23.31745,-8.50909 -2.6,-22.7 -2.73915,-57.40788 -2.33915,-80.20788 0.3,-17.4 -1.8,-34.5 -4.7,-51.5 -1.8,-10.5 -2.2,-21 -2.4,-31.5 -0.2,-7.6 -2.4,-7.6 -9.8,-6.7 -7.4,0.8 -5.9,0.3 -11.2,1 -12.1,1.7 -15.6,-13.1 2.1,-23.8 6.5,-3.9 14,-4.3 21.3,-5.7 21.3,-4 42,-3.1 62,6.1 28.7,13.2 44.3,35.6 47.3,67 1.2,12.1 2.9566,10.96875 3.2566,24.56875 z m -79.7566,33.53125 c 0.1,10.6 -0.1,21.1 -0.1,31.7 0,3 -2.53754,10.85278 0.76246,9.95278 6.3,-1.7 22.52221,-3.08747 28.22221,-6.88747 6.1,-4 10.23753,-11.33896 14.03753,-17.43896 10.2,-16.2 8.8778,-37.12635 8.6778,-56.32635 -0.1,-16.8 -4.2,-34 -14.5,-47.2 -7.6,-9.8 -19.1,-16.9 -31.5,-18.6 -6.1,-0.8 -12.4,-1.9 -12.7,5.3 -0.3,8 -0.8,16.1 0.4,24.1 1.4,9.6 3.3,19.2 4.4,28.9 1.7,15.5 2.2,31 2.3,46.5 z"
     id="path52"
     sodipodi:nodetypes="csccasssccssaccccccccccccccccccscccccccccc" /><path
     fill="#364760"
     d="m 678.38219,251.27584 c 0.5,20 -3.63484,39.60002 -0.93484,59.40002 0.7,5 3.91161,17.03769 4.11161,22.03769 0.3,7.1 -13.3348,3.4507 -20.5348,4.3507 -6.5,0.8 -8.36519,-23.63737 -7.48484,-37.08508 0.7871,-12.02328 -2.12403,-23.61831 -2.6458,-35.45822 -0.56104,-12.73095 -5.59026,-25.85566 -0.51981,-38.22503 1.24276,-3.03172 3.52753,-7.39856 6.79105,-7.1066 12.77139,1.14256 20.41019,0.90339 21.21743,32.08652 z"
     id="path58"
     sodipodi:nodetypes="ccccsasac" /></g><path
   fill="#364760"
   d="m 442.96934,174.91538 c 7.45077,0.45818 13.2857,-0.45819 18.22296,1.2829 13.10617,4.58182 26.48164,9.43854 30.16214,25.65817 2.15444,9.53018 -0.44884,18.32726 -4.30888,27.12435 -6.10424,13.83708 -18.49226,18.4189 -30.97005,23.09235 -19.12065,7.14763 -41.20364,-6.13963 -46.76928,-24.4669 -4.03957,-13.3789 -1.9749,-27.12434 7.45077,-38.57888 7.361,-8.98036 16.15829,-15.02836 26.21234,-14.11199 z m 24.14767,36.47125 c -0.0898,-2.65746 0.44884,-5.04 -1.61583,-6.048 -6.37355,-3.20727 -14.18339,-5.86472 -21.27509,-4.94836 -9.15636,1.09964 -13.82431,11.27127 -11.13126,19.97672 1.79536,5.68145 9.69497,9.43854 16.06852,7.42254 3.32143,-1.008 6.46332,-2.56582 9.60521,-3.94036 5.6554,-2.47418 7.45076,-7.51418 8.34845,-12.46254 z"
   id="path60"
   style="stroke-width:0.906975" /><path
   fill="#364760"
   d="m 493.07179,294.3286 c -3.96634,14.11779 -43.56349,14.02775 -61.22669,3.52486 -11.64209,-6.92263 -14.73848,-23.61731 -17.92812,-36.97991 -4.25277,-17.81649 -9.49738,-46.44374 -0.99484,-55.00393 6.99022,-7.03762 18.56533,27.92385 25.11842,28.01549 14.10254,14.66474 -16.91597,6.31876 -1.86916,17.43162 3.14721,2.32437 1.50133,26.05159 11.1133,31.10189 12.0007,6.30538 27.20182,-17.6932 39.02037,-11.03896 6.85258,3.85825 9.07631,14.72823 6.76672,22.94894 z"
   id="path62"
   sodipodi:nodetypes="saaccsaas"
   style="stroke-width:0.906975" />
<circle
   style="fill:#364760;fill-opacity:1;fill-rule:nonzero;stroke:#364760;stroke-width:2.39956;stroke-linecap:round;stroke-linejoin:round;stroke-opacity:1;paint-order:markers fill stroke"
   id="path896"
   sodipodi:type="arc"
   sodipodi:cx="313.64069"
   sodipodi:cy="-655.37091"
   sodipodi:rx="13.382563"
   sodipodi:ry="13.11955"
   sodipodi:start="0.64191814"
   sodipodi:end="5.600046"
   sodipodi:arc-type="arc"
   d="m 324.35943,-647.5158 a 13.382563,13.11955 0 0 1 -14.80954,4.63646 13.382563,13.11955 0 0 1 -9.28892,-12.22119 13.382563,13.11955 0 0 1 8.7673,-12.58607 13.382563,13.11955 0 0 1 14.99186,4.03422"
   transform="matrix(-0.04429772,0.99901837,-0.99893421,-0.04615663,0,0)"
   sodipodi:open="true" /><rect
   style="fill:#364760;fill-opacity:1;fill-rule:nonzero;stroke:#ffffff;stroke-width:2.39956;stroke-linecap:round;stroke-linejoin:round;paint-order:markers fill stroke"
   id="rect900"
   width="121.46603"
   height="11.436433"
   x="668.88971"
   y="337.7612"
   ry="4.9685712" /><rect
   style="fill:#364760;fill-opacity:1;fill-rule:nonzero;stroke:#ffffff;stroke-width:2.39965;stroke-linecap:round;stroke-linejoin:round;paint-order:markers fill stroke"
   id="rect900-3"
   width="121.72195"
   height="11.413263"
   x="533.672"
   y="518.65228"
   ry="4.9585052"
   transform="matrix(0.94652741,-0.32262341,0.31088611,0.95044717,0,0)" /><rect
   style="fill:#364760;fill-opacity:1;fill-rule:nonzero;stroke:#ffffff;stroke-width:2.39962;stroke-linecap:round;stroke-linejoin:round;paint-order:markers fill stroke"
   id="rect900-6"
   width="121.64045"
   height="11.420651"
   x="733.24164"
   y="163.87509"
   ry="4.9617152"
   transform="matrix(0.96384085,0.26647856,-0.25644591,0.96655858,0,0)" /><rect
   style="fill:#364760;fill-opacity:1;fill-rule:nonzero;stroke:#ffffff;stroke-width:2.39956;stroke-linecap:round;stroke-linejoin:round;paint-order:markers fill stroke"
   id="rect900-7"
   width="121.46603"
   height="11.436433"
   x="488.17343"
   y="335.13388"
   ry="4.9685712" /><rect
   style="fill:#364760;fill-opacity:1;fill-rule:nonzero;stroke:#ffffff;stroke-width:2.39966;stroke-linecap:round;stroke-linejoin:round;paint-order:markers fill stroke"
   id="rect900-3-5"
   width="121.76327"
   height="11.409513"
   x="334.22595"
   y="539.78406"
   ry="4.9568758"
   transform="matrix(0.93763984,-0.34760831,0.33518589,0.94215201,0,0)" /><rect
   style="fill:#364760;fill-opacity:1;fill-rule:nonzero;stroke:#ffffff;stroke-width:2.39963;stroke-linecap:round;stroke-linejoin:round;paint-order:markers fill stroke"
   id="rect900-6-3"
   width="121.67816"
   height="11.417233"
   x="556.2345"
   y="125.05893"
   ry="4.9602299"
   transform="matrix(0.95586315,0.29381225,-0.28292286,0.95914267,0,0)" /></svg>
